<svg width="33" height="19" viewBox="0 0 33 19" fill="none" xmlns="http://www.w3.org/2000/svg">
<path d="M2.288 18.192C1.824 18.192 1.464 18.064 1.208 17.808C0.968 17.552 0.848 17.184 0.848 16.704V2.424C0.848 1.928 0.968 1.552 1.208 1.296C1.464 1.024 1.792 0.887999 2.192 0.887999C2.56 0.887999 2.832 0.959999 3.008 1.104C3.2 1.232 3.424 1.456 3.68 1.776L12.872 13.704H12.248V2.352C12.248 1.888 12.368 1.528 12.608 1.272C12.864 1.016 13.224 0.887999 13.688 0.887999C14.152 0.887999 14.504 1.016 14.744 1.272C14.984 1.528 15.104 1.888 15.104 2.352V16.752C15.104 17.2 14.992 17.552 14.768 17.808C14.544 18.064 14.24 18.192 13.856 18.192C13.488 18.192 13.192 18.12 12.968 17.976C12.76 17.832 12.528 17.6 12.272 17.28L3.104 5.352H3.704V16.704C3.704 17.184 3.584 17.552 3.344 17.808C3.104 18.064 2.752 18.192 2.288 18.192Z" fill="#FD377E"/>
<path d="M20.3371 18.192C19.8411 18.192 19.4571 18.056 19.1851 17.784C18.9291 17.496 18.8011 17.104 18.8011 16.608V2.448C18.8011 1.936 18.9291 1.552 19.1851 1.296C19.4571 1.024 19.8411 0.887999 20.3371 0.887999C20.8331 0.887999 21.2091 1.024 21.4651 1.296C21.7371 1.552 21.8731 1.936 21.8731 2.448V8.568H21.9211L28.8091 1.656C29.0651 1.4 29.3211 1.208 29.5771 1.08C29.8331 0.951999 30.1211 0.887999 30.4411 0.887999C30.9051 0.887999 31.2331 1.008 31.4251 1.248C31.6331 1.488 31.7131 1.768 31.6651 2.088C31.6331 2.408 31.4811 2.704 31.2091 2.976L24.2011 9.912L24.2251 8.52L31.5451 15.96C31.8811 16.28 32.0571 16.616 32.0731 16.968C32.0891 17.32 31.9771 17.616 31.7371 17.856C31.5131 18.08 31.1771 18.192 30.7291 18.192C30.3451 18.192 30.0331 18.112 29.7931 17.952C29.5691 17.792 29.3051 17.56 29.0011 17.256L21.9211 10.176H21.8731V16.608C21.8731 17.104 21.7451 17.496 21.4891 17.784C21.2331 18.056 20.8491 18.192 20.3371 18.192Z" fill="white"/>
</svg>
